<?xml version="1.0" encoding="utf-8"?>
<!-- Generator: Adobe Illustrator 24.0.2, SVG Export Plug-In . SVG Version: 6.00 Build 0)  -->
<svg version="1.1" id="Layer_1" xmlns="http://www.w3.org/2000/svg" xmlns:xlink="http://www.w3.org/1999/xlink" x="0px" y="0px"
	 viewBox="0 0 53 53" style="enable-background:new 0 0 53 53;" xml:space="preserve">
<style type="text/css">
	.st0{fill:#B3B3B3;}
	.st1{fill:#FFFFFF;}
	.st2{fill:#0066B1;}
</style>
<rect id="Background" class="st0" width="53" height="53"/>
<path id="Shape" class="st1" d="M26.5,0C11.9,0,0,11.9,0,26.5S11.9,53,26.5,53S53,41.1,53,26.5S41.1,0,26.5,0L26.5,0z M51.3,26.5
	c0,13.7-11.1,24.8-24.8,24.8S1.7,40.2,1.7,26.5S12.8,1.7,26.5,1.7S51.3,12.8,51.3,26.5z"/>
<path id="Shape_1_" class="st1" d="M26.5,10.8v0.9l0,0c8.2,0,14.8,6.7,14.8,14.8h0.9C42.2,17.8,35.2,10.8,26.5,10.8L26.5,10.8
	 M26.5,41.3c-8.2,0-14.8-6.7-14.8-14.8h-0.9c0,8.7,7,15.7,15.7,15.7"/>
<path id="Path" class="st2" d="M26.5,10.8v15.7H10.8C10.8,17.8,17.8,10.8,26.5,10.8z"/>
<path id="Path_1_" class="st2" d="M42.2,26.5c0,8.7-7,15.7-15.7,15.7V26.5H42.2z"/>
<g id="BMW" transform="translate(7.197531, 3.271605)">
	<path id="W_61_" class="st1" d="M32,12c0.4,0.4,0.9,1,1.2,1.4l5.4-3.4c-0.3-0.3-0.7-0.9-1-1.2L34.1,11l-0.2,0.2l0.2-0.3l1.5-3
		l-1.1-1.1l-3,1.5l-0.3,0.2l0.2-0.2L33.7,5c-0.4-0.3-0.8-0.6-1.3-1L29,9.3c0.4,0.3,1,0.8,1.4,1.1l3.2-1.7l0.2-0.1l-0.2,0.2L32,12z"
		/>
	<path id="M_61_" class="st1" d="M19.8,5.3L21.3,2l0.1-0.3l0,0.3l0.2,4.4c0.5,0,1,0.1,1.6,0.2l-0.2-6.4C22.1,0.1,21.4,0,20.7,0
		l-1.4,3.6l-0.1,0.3l-0.1-0.3L17.7,0c-0.7,0-1.5,0.1-2.2,0.2l-0.2,6.4c0.5-0.1,1.1-0.2,1.6-0.2L17,2.1l0-0.3L17,2l1.5,3.3H19.8z"/>
	<path id="B" class="st1" d="M8,10.4c0.8-0.9,1.3-1.9,0.5-2.9C8,7,7.2,6.9,6.6,7.2l-0.1,0l0-0.1C6.6,6.9,6.7,6.1,6,5.5
		C5.7,5.3,5.2,5.2,4.8,5.2C4,5.3,3.4,5.8,1.7,7.7c-0.5,0.6-1.2,1.4-1.7,2L4.6,14C6.2,12.3,6.8,11.7,8,10.4z M2,9.4
		c0.9-1.1,1.9-2.1,2.3-2.5c0.1-0.1,0.3-0.3,0.5-0.3C5.1,6.5,5.4,6.7,5.5,7c0.1,0.3-0.1,0.6-0.3,0.8c-0.5,0.5-2.3,2.4-2.3,2.4L2,9.4z
		 M3.8,11.1c0,0,1.7-1.8,2.3-2.4c0.2-0.2,0.4-0.4,0.5-0.4c0.2-0.1,0.4-0.1,0.6,0c0.2,0.1,0.3,0.3,0.2,0.6C7.4,9.1,7.2,9.3,7,9.5
		C6.8,9.8,4.7,11.9,4.7,12L3.8,11.1z"/>
</g>
<path id="Path_2_" class="st1" d="M42.2,26.5H26.5V10.8C35.2,10.8,42.2,17.8,42.2,26.5z"/>
<path id="Path_3_" class="st1" d="M26.5,42.2c-8.7,0-15.7-7-15.7-15.7h15.7V42.2z"/>
</svg>
